<svg xmlns="http://www.w3.org/2000/svg" viewBox="0 0 906 906"><defs><style>.cls-1{fill:#d80028;}.cls-2{fill:#fff;}</style></defs><g id="Lag_2" data-name="Lag 2"><g id="Lag_1-2" data-name="Lag 1"><path class="cls-1" d="M242,52V388H4.63C25.63,241.89,116.35,118.3,242,52Z"/><path class="cls-1" d="M242,518V854C116.35,787.7,25.63,664.11,4.63,518Z"/><path class="cls-1" d="M901.37,518C869.84,737.39,681.11,906,453,906a456,456,0,0,1-81-7.22V518Z"/><path class="cls-1" d="M901.37,388H372V7.22A456,456,0,0,1,453,0C681.11,0,869.84,168.61,901.37,388Z"/><path class="cls-2" d="M906,453a456.87,456.87,0,0,1-4.63,65H372V898.78A449.81,449.81,0,0,1,242,854V518H4.63a458.58,458.58,0,0,1,0-130H242V52A449.81,449.81,0,0,1,372,7.22V388H901.37A456.87,456.87,0,0,1,906,453Z"/></g></g></svg>