<svg xmlns="http://www.w3.org/2000/svg" viewBox="0 0 948 948"><defs><style>.cls-1{fill:#001f6d;}.cls-2{fill:#da0025;}.cls-3{fill:#fff;}</style></defs><g id="Lag_2" data-name="Lag 2"><g id="rundt_flag" data-name="rundt flag"><path class="cls-1" d="M141.82,374.5H10.47a470.61,470.61,0,0,1,16.19-57.62Z"/><path class="cls-1" d="M374,10.58V356.49L80.51,209.64C147.82,109.66,252.22,36.72,374,10.58Z"/><path class="cls-1" d="M868,210.36,573,357.94V10.36C695.5,36.38,800.5,109.73,868,210.36Z"/><path class="cls-1" d="M937.53,374.5H808.08l113.54-56.8A469.31,469.31,0,0,1,937.53,374.5Z"/><path class="cls-1" d="M867.88,737.77C800.41,838.33,695.44,911.63,573,937.64V590.23Z"/><path class="cls-1" d="M937.53,573.5a470,470,0,0,1-16,57l-113.83-57Z"/><path class="cls-1" d="M374,591.69V937.42c-121.72-26.13-226.09-99-293.4-198.93Z"/><path class="cls-1" d="M142.16,573.5,26.71,631.26A468.88,468.88,0,0,1,10.47,573.5Z"/><path class="cls-2" d="M273.11,374.5H185.38l-151.83-76q7.29-18.33,16.06-35.86Z"/><path class="cls-2" d="M914,650.72q-7.35,18.3-16.17,35.81l-225.91-113H759.6Z"/><path class="cls-2" d="M898,261.87,672.89,374.5H585.14l293.8-147Q889.16,244.24,898,261.87Z"/><path class="cls-2" d="M364.24,573.5,69.38,721Q59.15,704.3,50.29,686.68L276.49,573.5Z"/><path class="cls-3" d="M414,3.77V414H3.77q2.52-20,6.7-39.5H141.82L26.66,316.88q3.25-9.27,6.89-18.35l151.83,76h87.73L49.61,262.67a472.23,472.23,0,0,1,30.9-53L374,356.49V10.58Q393.71,6.34,414,3.77Z"/><path class="cls-3" d="M944.23,414H534V3.77q19.77,2.49,39,6.59V357.94L868,210.36q5.67,8.44,11,17.14l-293.8,147h87.75L898,261.87a469.52,469.52,0,0,1,23.63,55.83L808.08,374.5H937.53Q941.7,394,944.23,414Z"/><path class="cls-3" d="M414,534V944.23q-20.28-2.55-40-6.81V591.69L80.6,738.49Q74.8,729.88,69.38,721L364.24,573.5H276.49L50.29,686.68a469.68,469.68,0,0,1-23.58-55.42L142.16,573.5H10.47Q6.3,554,3.77,534Z"/><path class="cls-3" d="M937.53,573.5H807.74l113.83,57Q918,640.69,914,650.72L759.6,573.5H671.87l225.91,113a468.94,468.94,0,0,1-29.9,51.24L573,590.23V937.64q-19.23,4.1-39,6.59V534H944.23Q941.71,554,937.53,573.5Z"/><path class="cls-2" d="M948,474a477.18,477.18,0,0,1-3.77,60H534V944.23a479.34,479.34,0,0,1-120,0V534H3.77a479.34,479.34,0,0,1,0-120H414V3.77a479.34,479.34,0,0,1,120,0V414H944.23A477.18,477.18,0,0,1,948,474Z"/></g></g></svg>